# xmcd
#
# Track frame offsets: 
#        150
#        20979
#        36521
#        53975
#        69277
#        85404
#        98523
#        112730
#        129232
#        142576
#        155170
#        168529
#
# Disc length: 2416 seconds
#
# Revision: 0
# Processed by: cddbd v1.5.2PL0 Copyright (c) Steve Scherf et al.
# Submitted via: ExactAudioCopy v0.99pb4
#
DISCID=9a096e0c
DTITLE=Rod Stewart - The Great American Songbook Volume V Disc 1
DYEAR=2010
DGENRE=Rock
TTITLE0=That Old Black Magic
TTITLE1=Beyond The Sea
TTITLE2=I've Got You Under My Skin
TTITLE3=What A Difference A Day Makes
TTITLE4=I Get A Kick Out Of You
TTITLE5=I've Got The World On A String
TTITLE6=Love Me Or Leave Me
TTITLE7=My Foolish Heart
TTITLE8=September In The Rain
TTITLE9=Fly Me To The Moon
TTITLE10=Sunny Side Of The Street
TTITLE11=Moon River
EXTD=
EXTT0=
EXTT1=
EXTT2=
EXTT3=
EXTT4=
EXTT5=
EXTT6=
EXTT7=
EXTT8=
EXTT9=
EXTT10=
EXTT11=
PLAYORDER=
